<svg xmlns="http://www.w3.org/2000/svg" width="32" height="32" xmlns:v="https://vecta.io/nano"><path d="M12 8h1v14h-1zm-2 0h1v14h-1zm4 0v14h14V10s-1-2-2-2H14z" fill="#ffd561"/><path d="M28.5 6h-25A1.5 1.5 0 0 0 2 7.5v16A1.5 1.5 0 0 0 3.5 25H15v2h-5v1h12v-1h-5v-2h11.5a1.5 1.5 0 0 0 1.5-1.5v-16A1.5 1.5 0 0 0 28.5 6zm.5 15H6v1h23v1.5c0 .28-.22.5-.5.5h-25c-.28 0-.5-.22-.5-.5v-16c0-.28.22-.5.5-.5h25c.28 0 .5.22.5.5V21zM28 9.5v10h-1v-10c0-.4-.28-.49-.51-.5H5.5c-.4 0-.49.27-.5.51V22H4V9.5C4 8.9 4.4 8 5.5 8h21c.6 0 1.5.4 1.5 1.5z" fill="#2d2220"/><path d="M11 28h8v1h-8zm9 0h3v1h-3z" fill="#ffd561"/></svg>